<svg width="138" height="84" viewBox="0 0 138 84" fill="none" xmlns="http://www.w3.org/2000/svg">
<path d="M22.8639 40.7825C23.6504 41.3443 24.7433 41.1621 25.3051 40.3757C25.8669 39.5892 25.6847 38.4962 24.8982 37.9345L22.8639 40.7825ZM20.4471 30.6415L22.1955 30.7175L20.4471 30.6415ZM25.9941 19.283L24.8418 17.966L25.9941 19.283ZM31.8055 14L33.009 12.7296L31.8175 11.6007L30.6147 12.7176L31.8055 14ZM36.8243 18.7547L38.0618 17.5173L38.0451 17.5006L38.0279 17.4843L36.8243 18.7547ZM40.117 26.7028L40.4047 28.429L43.8571 27.8536L43.5694 26.1274L40.117 26.7028ZM24.8982 37.9345C24.1253 37.3824 22.011 34.9599 22.1955 30.7175L18.6988 30.5655C18.4606 36.0439 21.1714 39.5736 22.8639 40.7825L24.8982 37.9345ZM22.1955 30.7175C22.4304 25.3132 25.2154 22.2898 27.1465 20.6L24.8418 17.966C22.5465 19.9744 18.9921 23.8189 18.6988 30.5655L22.1955 30.7175ZM27.1465 20.6C28.8588 19.1018 31.7641 16.4266 32.9963 15.2824L30.6147 12.7176C29.3815 13.8627 26.5106 16.5058 24.8418 17.966L27.1465 20.6ZM30.6019 15.2704L35.6208 20.0251L38.0279 17.4843L33.009 12.7296L30.6019 15.2704ZM36.8243 18.7547C35.5869 19.9922 35.5867 19.992 35.5866 19.9918C35.5866 19.9918 35.5864 19.9917 35.5864 19.9916C35.5863 19.9915 35.5863 19.9915 35.5863 19.9915C35.5864 19.9916 35.5867 19.9919 35.5873 19.9925C35.5885 19.9937 35.5907 19.996 35.594 19.9993C35.6005 20.0059 35.6111 20.0166 35.6256 20.0313C35.6544 20.0608 35.6986 20.1061 35.7559 20.1658C35.8707 20.2853 36.0379 20.4623 36.2414 20.6853C36.6497 21.1329 37.1973 21.759 37.7575 22.4748C38.3207 23.1944 38.8774 23.9804 39.3167 24.7491C39.7676 25.5383 40.0341 26.2051 40.117 26.7028L43.5694 26.1274C43.3882 25.0402 42.8952 23.957 42.3556 23.0127C41.8043 22.0479 41.1393 21.117 40.5138 20.3177C39.8853 19.5146 39.2772 18.8199 38.8271 18.3265C38.6013 18.079 38.4136 17.8803 38.2808 17.7419C38.2143 17.6727 38.1614 17.6184 38.1242 17.5805C38.1057 17.5616 38.091 17.5467 38.0805 17.5361C38.0752 17.5308 38.071 17.5266 38.0679 17.5234C38.0663 17.5219 38.065 17.5206 38.064 17.5195C38.0635 17.519 38.0631 17.5186 38.0627 17.5182C38.0625 17.518 38.0623 17.5178 38.0622 17.5177C38.062 17.5175 38.0618 17.5173 36.8243 18.7547Z" fill="#626262"/>
<path d="M29.7825 50.6645C30.3443 49.8781 30.1621 48.7851 29.3757 48.2233C28.5892 47.6616 27.4962 47.8437 26.9345 48.6302L29.7825 50.6645ZM19.6415 53.0813L19.7175 51.333L19.6415 53.0813ZM8.28302 47.5343L6.96601 48.6867L8.28302 47.5343ZM3 41.723L1.72958 40.5194L0.600739 41.711L1.71761 42.9138L3 41.723ZM7.75472 36.7041L6.51728 35.4667L6.50056 35.4834L6.4843 35.5006L7.75472 36.7041ZM15.7028 33.4114L17.429 33.1237L16.8536 29.6713L15.1274 29.959L15.7028 33.4114ZM26.9345 48.6302C26.3824 49.4031 23.9599 51.5174 19.7175 51.333L19.5655 54.8297C25.0439 55.0679 28.5736 52.357 29.7825 50.6645L26.9345 48.6302ZM19.7175 51.333C14.3132 51.098 11.2898 48.313 9.60003 46.3819L6.96601 48.6867C8.97439 50.982 12.8189 54.5364 19.5655 54.8297L19.7175 51.333ZM9.60003 46.3819C8.1018 44.6696 5.42658 41.7644 4.28239 40.5322L1.71761 42.9138C2.86273 44.147 5.50575 47.0178 6.96601 48.6867L9.60003 46.3819ZM4.27042 42.9265L9.02513 37.9077L6.4843 35.5006L1.72958 40.5194L4.27042 42.9265ZM7.75472 36.7041C8.99215 37.9415 8.99199 37.9417 8.99185 37.9418C8.99182 37.9419 8.9917 37.942 8.99165 37.942C8.99154 37.9422 8.99151 37.9422 8.99154 37.9422C8.99161 37.9421 8.99194 37.9418 8.99254 37.9412C8.99373 37.94 8.99599 37.9377 8.99929 37.9345C9.00588 37.9279 9.01662 37.9173 9.03133 37.9029C9.06077 37.874 9.10606 37.8299 9.16579 37.7725C9.28535 37.6578 9.46226 37.4905 9.68533 37.287C10.1329 36.8787 10.759 36.3311 11.4748 35.7709C12.1944 35.2077 12.9804 34.651 13.7491 34.2117C14.5383 33.7608 15.2051 33.4944 15.7028 33.4114L15.1274 29.959C14.0402 30.1402 12.957 30.6333 12.0127 31.1729C11.0479 31.7242 10.117 32.3891 9.31769 33.0146C8.51462 33.6431 7.8199 34.2512 7.32646 34.7014C7.07901 34.9271 6.88034 35.1148 6.74193 35.2477C6.67269 35.3142 6.6184 35.367 6.58051 35.4042C6.56156 35.4228 6.5467 35.4375 6.5361 35.448C6.53081 35.4532 6.52657 35.4574 6.52343 35.4605C6.52186 35.4621 6.52056 35.4634 6.51953 35.4644C6.51902 35.4649 6.51857 35.4654 6.5182 35.4657C6.51801 35.4659 6.51778 35.4662 6.51769 35.4663C6.51748 35.4665 6.51728 35.4667 7.75472 36.7041Z" fill="#626262"/>
<path d="M32.2175 33.8638C31.6557 34.6503 31.8379 35.7432 32.6243 36.305C33.4108 36.8667 34.5038 36.6846 35.0655 35.8981L32.2175 33.8638ZM42.3585 31.447L42.2825 33.1953L42.3585 31.447ZM53.717 36.994L55.034 35.8416L53.717 36.994ZM59 42.8053L60.2704 44.0089L61.3993 42.8173L60.2824 41.6146L59 42.8053ZM54.2453 47.8242L55.4827 49.0617L55.4994 49.0449L55.5157 49.0278L54.2453 47.8242ZM46.2972 51.1169L44.571 51.4046L45.1464 54.857L46.8726 54.5693L46.2972 51.1169ZM35.0655 35.8981C35.6176 35.1252 38.0401 33.0109 42.2825 33.1953L42.4345 29.6986C36.9561 29.4604 33.4264 32.1713 32.2175 33.8638L35.0655 35.8981ZM42.2825 33.1953C47.6868 33.4303 50.7102 36.2153 52.4 38.1464L55.034 35.8416C53.0256 33.5464 49.1811 29.992 42.4345 29.6986L42.2825 33.1953ZM52.4 38.1464C53.8982 39.8587 56.5734 42.7639 57.7176 43.9961L60.2824 41.6146C59.1373 40.3814 56.4942 37.5105 55.034 35.8416L52.4 38.1464ZM57.7296 41.6018L52.9749 46.6207L55.5157 49.0278L60.2704 44.0089L57.7296 41.6018ZM54.2453 47.8242C53.0078 46.5868 53.008 46.5866 53.0082 46.5865C53.0082 46.5864 53.0083 46.5863 53.0084 46.5863C53.0085 46.5862 53.0085 46.5861 53.0085 46.5862C53.0084 46.5862 53.0081 46.5866 53.0075 46.5872C53.0063 46.5884 53.004 46.5906 53.0007 46.5939C52.9941 46.6004 52.9834 46.611 52.9687 46.6254C52.9392 46.6543 52.8939 46.6984 52.8342 46.7558C52.7147 46.8705 52.5377 47.0378 52.3147 47.2413C51.8671 47.6496 51.241 48.1972 50.5252 48.7574C49.8056 49.3206 49.0196 49.8773 48.2509 50.3166C47.4617 50.7675 46.7949 51.0339 46.2972 51.1169L46.8726 54.5693C47.9598 54.3881 49.043 53.8951 49.9873 53.3554C50.9521 52.8042 51.883 52.1392 52.6823 51.5137C53.4854 50.8852 54.1801 50.2771 54.6735 49.827C54.921 49.6012 55.1197 49.4135 55.2581 49.2806C55.3273 49.2142 55.3816 49.1613 55.4195 49.1241C55.4384 49.1055 55.4533 49.0909 55.4639 49.0804C55.4692 49.0751 55.4734 49.0709 55.4766 49.0678C55.4781 49.0662 55.4794 49.0649 55.4805 49.0639C55.481 49.0634 55.4814 49.0629 55.4818 49.0626C55.482 49.0624 55.4822 49.0622 55.4823 49.0621C55.4825 49.0618 55.4827 49.0617 54.2453 47.8242Z" fill="#626262"/>
<path d="M39.6644 43.2175C38.8779 42.6557 37.785 42.8379 37.2232 43.6243C36.6615 44.4108 36.8436 45.5038 37.6301 46.0655L39.6644 43.2175ZM42.0812 53.3585L40.3329 53.2825L42.0812 53.3585ZM36.5342 64.717L37.6866 66.034L36.5342 64.717ZM30.7228 70L29.5193 71.2704L30.7109 72.3993L31.9136 71.2824L30.7228 70ZM25.704 65.2453L24.4665 66.4827L24.4833 66.4994L24.5004 66.5157L25.704 65.2453ZM22.4113 57.2972L22.1236 55.571L18.6712 56.1464L18.9589 57.8726L22.4113 57.2972ZM37.6301 46.0655C38.403 46.6176 40.5173 49.0401 40.3329 53.2825L43.8296 53.4345C44.0678 47.9561 41.3569 44.4264 39.6644 43.2175L37.6301 46.0655ZM40.3329 53.2825C40.0979 58.6868 37.3129 61.7102 35.3818 63.4L37.6866 66.034C39.9818 64.0256 43.5362 60.1811 43.8296 53.4345L40.3329 53.2825ZM35.3818 63.4C33.6695 64.8982 30.7643 67.5734 29.5321 68.7176L31.9136 71.2824C33.1468 70.1373 36.0177 67.4942 37.6866 66.034L35.3818 63.4ZM31.9264 68.7296L26.9075 63.9749L24.5004 66.5157L29.5193 71.2704L31.9264 68.7296ZM25.704 65.2453C26.9414 64.0078 26.9416 64.008 26.9417 64.0082C26.9417 64.0082 26.9419 64.0083 26.9419 64.0084C26.942 64.0085 26.9421 64.0085 26.942 64.0085C26.942 64.0084 26.9416 64.0081 26.941 64.0075C26.9398 64.0063 26.9376 64.004 26.9343 64.0007C26.9278 63.9941 26.9172 63.9834 26.9028 63.9687C26.8739 63.9392 26.8298 63.8939 26.7724 63.8342C26.6577 63.7147 26.4904 63.5377 26.2869 63.3147C25.8786 62.8671 25.331 62.241 24.7708 61.5252C24.2076 60.8056 23.6509 60.0196 23.2116 59.2509C22.7607 58.4617 22.4943 57.7949 22.4113 57.2972L18.9589 57.8726C19.1401 58.9598 19.6331 60.043 20.1728 60.9873C20.724 61.9521 21.389 62.883 22.0145 63.6823C22.643 64.4854 23.2511 65.1801 23.7012 65.6735C23.927 65.921 24.1147 66.1197 24.2476 66.2581C24.314 66.3273 24.3669 66.3816 24.4041 66.4195C24.4227 66.4384 24.4373 66.4533 24.4478 66.4639C24.4531 66.4692 24.4573 66.4734 24.4604 66.4766C24.462 66.4781 24.4633 66.4794 24.4643 66.4805C24.4648 66.481 24.4653 66.4814 24.4656 66.4818C24.4658 66.482 24.466 66.4822 24.4661 66.4823C24.4663 66.4825 24.4665 66.4827 25.704 65.2453Z" fill="#626262"/>
<path d="M74.64 22.24C73.232 22.24 72 22.008 70.944 21.544C69.888 21.064 69.072 20.336 68.496 19.36C67.92 18.368 67.632 17.112 67.632 15.592V5.8C67.632 5.624 67.688 5.48 67.8 5.368C67.912 5.256 68.056 5.2 68.232 5.2H70.848C71.024 5.2 71.168 5.256 71.28 5.368C71.392 5.48 71.448 5.624 71.448 5.8V15.568C71.448 16.752 71.728 17.632 72.288 18.208C72.848 18.784 73.632 19.072 74.64 19.072C75.632 19.072 76.408 18.784 76.968 18.208C77.528 17.632 77.808 16.752 77.808 15.568V5.8C77.808 5.624 77.864 5.48 77.976 5.368C78.104 5.256 78.248 5.2 78.408 5.2H81.048C81.208 5.2 81.344 5.256 81.456 5.368C81.568 5.48 81.624 5.624 81.624 5.8V15.592C81.624 17.112 81.336 18.368 80.76 19.36C80.184 20.336 79.376 21.064 78.336 21.544C77.296 22.008 76.064 22.24 74.64 22.24ZM85.338 22C85.178 22 85.042 21.944 84.93 21.832C84.818 21.72 84.762 21.576 84.762 21.4V10.12C84.762 9.944 84.818 9.8 84.93 9.688C85.042 9.576 85.178 9.52 85.338 9.52H87.69C87.866 9.52 88.01 9.576 88.122 9.688C88.234 9.8 88.29 9.944 88.29 10.12V11.056C88.706 10.544 89.242 10.12 89.898 9.784C90.554 9.448 91.354 9.28 92.298 9.28C93.242 9.28 94.066 9.496 94.77 9.928C95.49 10.344 96.05 10.96 96.45 11.776C96.866 12.576 97.074 13.552 97.074 14.704V21.4C97.074 21.576 97.01 21.72 96.882 21.832C96.77 21.944 96.634 22 96.474 22H93.93C93.754 22 93.61 21.944 93.498 21.832C93.386 21.72 93.33 21.576 93.33 21.4V14.848C93.33 14 93.122 13.344 92.706 12.88C92.306 12.4 91.714 12.16 90.93 12.16C90.178 12.16 89.578 12.4 89.13 12.88C88.682 13.344 88.458 14 88.458 14.848V21.4C88.458 21.576 88.402 21.72 88.29 21.832C88.178 21.944 88.042 22 87.882 22H85.338ZM100.526 22C100.366 22 100.23 21.944 100.118 21.832C100.006 21.72 99.9495 21.576 99.9495 21.4V10.12C99.9495 9.944 100.006 9.8 100.118 9.688C100.23 9.576 100.366 9.52 100.526 9.52H102.926C103.102 9.52 103.246 9.576 103.358 9.688C103.47 9.8 103.526 9.944 103.526 10.12V21.4C103.526 21.576 103.47 21.72 103.358 21.832C103.246 21.944 103.102 22 102.926 22H100.526ZM100.454 7.6C100.294 7.6 100.158 7.544 100.046 7.432C99.9335 7.32 99.8775 7.176 99.8775 7V5.08C99.8775 4.904 99.9335 4.76 100.046 4.648C100.158 4.52 100.294 4.456 100.454 4.456H102.974C103.15 4.456 103.294 4.52 103.406 4.648C103.534 4.76 103.598 4.904 103.598 5.08V7C103.598 7.176 103.534 7.32 103.406 7.432C103.294 7.544 103.15 7.6 102.974 7.6H100.454ZM112.173 22.24C111.005 22.24 109.973 22.024 109.077 21.592C108.197 21.16 107.501 20.536 106.989 19.72C106.477 18.888 106.197 17.896 106.149 16.744C106.133 16.488 106.125 16.168 106.125 15.784C106.125 15.384 106.133 15.056 106.149 14.8C106.197 13.632 106.469 12.64 106.965 11.824C107.477 10.992 108.181 10.36 109.077 9.928C109.973 9.496 111.005 9.28 112.173 9.28C113.245 9.28 114.157 9.432 114.909 9.736C115.661 10.024 116.277 10.392 116.757 10.84C117.237 11.288 117.589 11.76 117.813 12.256C118.053 12.736 118.181 13.16 118.197 13.528C118.213 13.688 118.157 13.832 118.029 13.96C117.917 14.072 117.781 14.128 117.621 14.128H115.053C114.893 14.128 114.765 14.088 114.669 14.008C114.589 13.912 114.509 13.784 114.429 13.624C114.205 13.064 113.917 12.664 113.565 12.424C113.213 12.184 112.773 12.064 112.245 12.064C111.525 12.064 110.957 12.296 110.541 12.76C110.125 13.224 109.901 13.944 109.869 14.92C109.853 15.544 109.853 16.112 109.869 16.624C109.917 17.616 110.141 18.336 110.541 18.784C110.957 19.232 111.525 19.456 112.245 19.456C112.805 19.456 113.253 19.336 113.589 19.096C113.925 18.856 114.205 18.456 114.429 17.896C114.493 17.736 114.573 17.616 114.669 17.536C114.765 17.44 114.893 17.392 115.053 17.392H117.621C117.781 17.392 117.917 17.456 118.029 17.584C118.157 17.696 118.213 17.832 118.197 17.992C118.181 18.264 118.101 18.584 117.957 18.952C117.829 19.32 117.613 19.696 117.309 20.08C117.021 20.464 116.645 20.824 116.181 21.16C115.717 21.48 115.149 21.744 114.477 21.952C113.821 22.144 113.053 22.24 112.173 22.24ZM73.824 50.24C72.288 50.24 71 50.016 69.96 49.568C68.936 49.12 68.16 48.536 67.632 47.816C67.104 47.096 66.824 46.328 66.792 45.512C66.792 45.384 66.84 45.272 66.936 45.176C67.032 45.064 67.152 45.008 67.296 45.008H69.864C70.072 45.008 70.232 45.056 70.344 45.152C70.456 45.232 70.56 45.336 70.656 45.464C70.768 45.736 70.944 46 71.184 46.256C71.44 46.512 71.784 46.728 72.216 46.904C72.648 47.064 73.184 47.144 73.824 47.144C74.864 47.144 75.64 46.976 76.152 46.64C76.68 46.304 76.944 45.848 76.944 45.272C76.944 44.856 76.8 44.52 76.512 44.264C76.24 44.008 75.8 43.776 75.192 43.568C74.6 43.36 73.808 43.136 72.816 42.896C71.616 42.64 70.592 42.312 69.744 41.912C68.912 41.496 68.28 40.968 67.848 40.328C67.432 39.672 67.224 38.864 67.224 37.904C67.224 36.944 67.488 36.096 68.016 35.36C68.544 34.608 69.288 34.024 70.248 33.608C71.208 33.176 72.352 32.96 73.68 32.96C74.752 32.96 75.696 33.104 76.512 33.392C77.344 33.68 78.032 34.056 78.576 34.52C79.136 34.984 79.56 35.48 79.848 36.008C80.136 36.536 80.288 37.048 80.304 37.544C80.304 37.672 80.256 37.792 80.16 37.904C80.064 38 79.944 38.048 79.8 38.048H77.112C76.952 38.048 76.808 38.016 76.68 37.952C76.552 37.888 76.448 37.776 76.368 37.616C76.272 37.2 75.984 36.84 75.504 36.536C75.04 36.216 74.432 36.056 73.68 36.056C72.896 36.056 72.272 36.2 71.808 36.488C71.36 36.776 71.136 37.216 71.136 37.808C71.136 38.192 71.248 38.52 71.472 38.792C71.712 39.048 72.104 39.28 72.648 39.488C73.208 39.68 73.944 39.896 74.856 40.136C76.264 40.424 77.408 40.768 78.288 41.168C79.168 41.568 79.816 42.088 80.232 42.728C80.648 43.352 80.856 44.144 80.856 45.104C80.856 46.176 80.552 47.096 79.944 47.864C79.352 48.632 78.528 49.224 77.472 49.64C76.432 50.04 75.216 50.24 73.824 50.24ZM89.1683 50C88.1763 50 87.3283 49.84 86.6243 49.52C85.9203 49.184 85.3843 48.672 85.0163 47.984C84.6643 47.296 84.4883 46.432 84.4883 45.392V40.352H82.6163C82.4403 40.352 82.2963 40.296 82.1843 40.184C82.0723 40.072 82.0163 39.928 82.0163 39.752V38.12C82.0163 37.944 82.0723 37.8 82.1843 37.688C82.2963 37.576 82.4403 37.52 82.6163 37.52H84.4883V33.56C84.4883 33.384 84.5443 33.24 84.6562 33.128C84.7843 33.016 84.9283 32.96 85.0883 32.96H87.4403C87.6163 32.96 87.7603 33.016 87.8723 33.128C87.9843 33.24 88.0403 33.384 88.0403 33.56V37.52H91.0403C91.2003 37.52 91.3363 37.576 91.4483 37.688C91.5603 37.8 91.6163 37.944 91.6163 38.12V39.752C91.6163 39.928 91.5603 40.072 91.4483 40.184C91.3363 40.296 91.2003 40.352 91.0403 40.352H88.0403V45.104C88.0403 45.712 88.1443 46.192 88.3523 46.544C88.5763 46.88 88.9603 47.048 89.5043 47.048H91.2563C91.4163 47.048 91.5523 47.104 91.6643 47.216C91.7763 47.328 91.8323 47.464 91.8323 47.624V49.4C91.8323 49.576 91.7763 49.72 91.6643 49.832C91.5523 49.944 91.4163 50 91.2563 50H89.1683ZM99.4941 50.24C97.6541 50.24 96.1901 49.728 95.1021 48.704C94.0301 47.68 93.4621 46.192 93.3981 44.24C93.3981 44.112 93.3981 43.944 93.3981 43.736C93.3981 43.512 93.3981 43.336 93.3981 43.208C93.4621 41.976 93.7421 40.92 94.2381 40.04C94.7341 39.144 95.4301 38.464 96.3261 38C97.2221 37.52 98.2701 37.28 99.4701 37.28C100.814 37.28 101.934 37.56 102.83 38.12C103.742 38.664 104.422 39.416 104.87 40.376C105.334 41.32 105.566 42.408 105.566 43.64V44.192C105.566 44.352 105.502 44.488 105.374 44.6C105.262 44.712 105.126 44.768 104.966 44.768H97.1181C97.1181 44.784 97.1181 44.816 97.1181 44.864C97.1181 44.896 97.1181 44.928 97.1181 44.96C97.1341 45.472 97.2301 45.944 97.4061 46.376C97.5981 46.792 97.8621 47.128 98.1981 47.384C98.5501 47.64 98.9661 47.768 99.4461 47.768C99.8461 47.768 100.174 47.712 100.43 47.6C100.686 47.488 100.894 47.352 101.054 47.192C101.23 47.032 101.358 46.896 101.438 46.784C101.582 46.624 101.694 46.528 101.774 46.496C101.87 46.448 102.014 46.424 102.206 46.424H104.702C104.862 46.424 104.99 46.472 105.086 46.568C105.198 46.648 105.246 46.768 105.23 46.928C105.214 47.184 105.078 47.504 104.822 47.888C104.582 48.256 104.222 48.624 103.742 48.992C103.262 49.344 102.662 49.64 101.942 49.88C101.238 50.12 100.422 50.24 99.4941 50.24ZM97.1181 42.584H101.822V42.536C101.822 41.96 101.726 41.464 101.534 41.048C101.358 40.616 101.094 40.28 100.742 40.04C100.39 39.8 99.9661 39.68 99.4701 39.68C98.9741 39.68 98.5501 39.8 98.1981 40.04C97.8461 40.28 97.5741 40.616 97.3821 41.048C97.2061 41.464 97.1181 41.96 97.1181 42.536V42.584ZM113.918 50C112.926 50 112.078 49.84 111.374 49.52C110.67 49.184 110.134 48.672 109.766 47.984C109.414 47.296 109.238 46.432 109.238 45.392V40.352H107.366C107.19 40.352 107.046 40.296 106.934 40.184C106.822 40.072 106.766 39.928 106.766 39.752V38.12C106.766 37.944 106.822 37.8 106.934 37.688C107.046 37.576 107.19 37.52 107.366 37.52H109.238V33.56C109.238 33.384 109.294 33.24 109.406 33.128C109.534 33.016 109.678 32.96 109.838 32.96H112.19C112.366 32.96 112.51 33.016 112.622 33.128C112.734 33.24 112.79 33.384 112.79 33.56V37.52H115.79C115.95 37.52 116.086 37.576 116.198 37.688C116.31 37.8 116.366 37.944 116.366 38.12V39.752C116.366 39.928 116.31 40.072 116.198 40.184C116.086 40.296 115.95 40.352 115.79 40.352H112.79V45.104C112.79 45.712 112.894 46.192 113.102 46.544C113.326 46.88 113.71 47.048 114.254 47.048H116.006C116.166 47.048 116.302 47.104 116.414 47.216C116.526 47.328 116.582 47.464 116.582 47.624V49.4C116.582 49.576 116.526 49.72 116.414 49.832C116.302 49.944 116.166 50 116.006 50H113.918ZM119.252 50C119.092 50 118.956 49.944 118.844 49.832C118.732 49.72 118.676 49.576 118.676 49.4V38.12C118.676 37.944 118.732 37.8 118.844 37.688C118.956 37.576 119.092 37.52 119.252 37.52H121.652C121.828 37.52 121.972 37.576 122.084 37.688C122.196 37.8 122.252 37.944 122.252 38.12V49.4C122.252 49.576 122.196 49.72 122.084 49.832C121.972 49.944 121.828 50 121.652 50H119.252ZM119.18 35.6C119.02 35.6 118.884 35.544 118.772 35.432C118.66 35.32 118.604 35.176 118.604 35V33.08C118.604 32.904 118.66 32.76 118.772 32.648C118.884 32.52 119.02 32.456 119.18 32.456H121.7C121.876 32.456 122.02 32.52 122.132 32.648C122.26 32.76 122.324 32.904 122.324 33.08V35C122.324 35.176 122.26 35.32 122.132 35.432C122.02 35.544 121.876 35.6 121.7 35.6H119.18ZM130.9 50.24C129.732 50.24 128.7 50.024 127.804 49.592C126.924 49.16 126.228 48.536 125.716 47.72C125.204 46.888 124.924 45.896 124.876 44.744C124.86 44.488 124.852 44.168 124.852 43.784C124.852 43.384 124.86 43.056 124.876 42.8C124.924 41.632 125.196 40.64 125.692 39.824C126.204 38.992 126.908 38.36 127.804 37.928C128.7 37.496 129.732 37.28 130.9 37.28C131.972 37.28 132.884 37.432 133.636 37.736C134.388 38.024 135.004 38.392 135.484 38.84C135.964 39.288 136.316 39.76 136.54 40.256C136.78 40.736 136.908 41.16 136.924 41.528C136.94 41.688 136.884 41.832 136.756 41.96C136.644 42.072 136.508 42.128 136.348 42.128H133.78C133.62 42.128 133.492 42.088 133.396 42.008C133.316 41.912 133.236 41.784 133.156 41.624C132.932 41.064 132.644 40.664 132.292 40.424C131.94 40.184 131.5 40.064 130.972 40.064C130.252 40.064 129.684 40.296 129.268 40.76C128.852 41.224 128.628 41.944 128.596 42.92C128.58 43.544 128.58 44.112 128.596 44.624C128.644 45.616 128.868 46.336 129.268 46.784C129.684 47.232 130.252 47.456 130.972 47.456C131.532 47.456 131.98 47.336 132.316 47.096C132.652 46.856 132.932 46.456 133.156 45.896C133.22 45.736 133.3 45.616 133.396 45.536C133.492 45.44 133.62 45.392 133.78 45.392H136.348C136.508 45.392 136.644 45.456 136.756 45.584C136.884 45.696 136.94 45.832 136.924 45.992C136.908 46.264 136.828 46.584 136.684 46.952C136.556 47.32 136.34 47.696 136.036 48.08C135.748 48.464 135.372 48.824 134.908 49.16C134.444 49.48 133.876 49.744 133.204 49.952C132.548 50.144 131.78 50.24 130.9 50.24ZM74.448 78.24C72.944 78.24 71.664 77.992 70.608 77.496C69.568 76.984 68.76 76.248 68.184 75.288C67.608 74.312 67.288 73.128 67.224 71.736C67.208 71.08 67.2 70.376 67.2 69.624C67.2 68.872 67.208 68.152 67.224 67.464C67.288 66.088 67.608 64.92 68.184 63.96C68.776 62.984 69.6 62.24 70.656 61.728C71.712 61.216 72.976 60.96 74.448 60.96C75.52 60.96 76.496 61.096 77.376 61.368C78.256 61.64 79.016 62.032 79.656 62.544C80.296 63.056 80.792 63.656 81.144 64.344C81.496 65.032 81.688 65.8 81.72 66.648C81.72 66.792 81.664 66.912 81.552 67.008C81.456 67.104 81.336 67.152 81.192 67.152H78.456C78.264 67.152 78.112 67.104 78 67.008C77.888 66.912 77.8 66.752 77.736 66.528C77.496 65.584 77.096 64.936 76.536 64.584C75.976 64.232 75.28 64.056 74.448 64.056C73.456 64.056 72.672 64.328 72.096 64.872C71.52 65.416 71.208 66.32 71.16 67.584C71.112 68.896 71.112 70.24 71.16 71.616C71.208 72.88 71.52 73.784 72.096 74.328C72.672 74.872 73.456 75.144 74.448 75.144C75.28 75.144 75.976 74.968 76.536 74.616C77.112 74.248 77.512 73.6 77.736 72.672C77.8 72.432 77.888 72.272 78 72.192C78.112 72.096 78.264 72.048 78.456 72.048H81.192C81.336 72.048 81.456 72.096 81.552 72.192C81.664 72.288 81.72 72.408 81.72 72.552C81.688 73.4 81.496 74.168 81.144 74.856C80.792 75.544 80.296 76.144 79.656 76.656C79.016 77.168 78.256 77.56 77.376 77.832C76.496 78.104 75.52 78.24 74.448 78.24ZM84.7526 78C84.5766 78 84.4326 77.944 84.3206 77.832C84.2086 77.72 84.1526 77.576 84.1526 77.4V61.56C84.1526 61.384 84.2086 61.24 84.3206 61.128C84.4326 61.016 84.5766 60.96 84.7526 60.96H87.1526C87.3126 60.96 87.4486 61.016 87.5606 61.128C87.6726 61.24 87.7286 61.384 87.7286 61.56V77.4C87.7286 77.576 87.6726 77.72 87.5606 77.832C87.4486 77.944 87.3126 78 87.1526 78H84.7526ZM91.9943 78C91.8343 78 91.6983 77.944 91.5863 77.832C91.4743 77.72 91.4183 77.576 91.4183 77.4V66.12C91.4183 65.944 91.4743 65.8 91.5863 65.688C91.6983 65.576 91.8343 65.52 91.9943 65.52H94.3943C94.5703 65.52 94.7143 65.576 94.8263 65.688C94.9383 65.8 94.9943 65.944 94.9943 66.12V77.4C94.9943 77.576 94.9383 77.72 94.8263 77.832C94.7143 77.944 94.5703 78 94.3943 78H91.9943ZM91.9223 63.6C91.7623 63.6 91.6263 63.544 91.5143 63.432C91.4023 63.32 91.3463 63.176 91.3463 63V61.08C91.3463 60.904 91.4023 60.76 91.5143 60.648C91.6263 60.52 91.7623 60.456 91.9223 60.456H94.4423C94.6183 60.456 94.7623 60.52 94.8743 60.648C95.0023 60.76 95.0663 60.904 95.0663 61.08V63C95.0663 63.176 95.0023 63.32 94.8743 63.432C94.7623 63.544 94.6183 63.6 94.4423 63.6H91.9223ZM99.1896 78C99.0296 78 98.8936 77.944 98.7816 77.832C98.6696 77.72 98.6136 77.576 98.6136 77.4V66.12C98.6136 65.944 98.6696 65.8 98.7816 65.688C98.8936 65.576 99.0296 65.52 99.1896 65.52H101.542C101.718 65.52 101.862 65.576 101.974 65.688C102.086 65.8 102.142 65.944 102.142 66.12V67.056C102.558 66.544 103.094 66.12 103.75 65.784C104.406 65.448 105.206 65.28 106.15 65.28C107.094 65.28 107.918 65.496 108.622 65.928C109.342 66.344 109.902 66.96 110.302 67.776C110.718 68.576 110.926 69.552 110.926 70.704V77.4C110.926 77.576 110.862 77.72 110.734 77.832C110.622 77.944 110.486 78 110.326 78H107.782C107.606 78 107.462 77.944 107.35 77.832C107.238 77.72 107.182 77.576 107.182 77.4V70.848C107.182 70 106.974 69.344 106.558 68.88C106.158 68.4 105.566 68.16 104.782 68.16C104.03 68.16 103.43 68.4 102.982 68.88C102.534 69.344 102.31 70 102.31 70.848V77.4C102.31 77.576 102.254 77.72 102.142 77.832C102.03 77.944 101.894 78 101.734 78H99.1896ZM114.377 78C114.217 78 114.081 77.944 113.969 77.832C113.857 77.72 113.801 77.576 113.801 77.4V66.12C113.801 65.944 113.857 65.8 113.969 65.688C114.081 65.576 114.217 65.52 114.377 65.52H116.777C116.953 65.52 117.097 65.576 117.209 65.688C117.321 65.8 117.377 65.944 117.377 66.12V77.4C117.377 77.576 117.321 77.72 117.209 77.832C117.097 77.944 116.953 78 116.777 78H114.377ZM114.305 63.6C114.145 63.6 114.009 63.544 113.897 63.432C113.785 63.32 113.729 63.176 113.729 63V61.08C113.729 60.904 113.785 60.76 113.897 60.648C114.009 60.52 114.145 60.456 114.305 60.456H116.825C117.001 60.456 117.145 60.52 117.257 60.648C117.385 60.76 117.449 60.904 117.449 61.08V63C117.449 63.176 117.385 63.32 117.257 63.432C117.145 63.544 117.001 63.6 116.825 63.6H114.305ZM126.025 78.24C124.857 78.24 123.825 78.024 122.929 77.592C122.049 77.16 121.353 76.536 120.841 75.72C120.329 74.888 120.049 73.896 120.001 72.744C119.985 72.488 119.977 72.168 119.977 71.784C119.977 71.384 119.985 71.056 120.001 70.8C120.049 69.632 120.321 68.64 120.817 67.824C121.329 66.992 122.033 66.36 122.929 65.928C123.825 65.496 124.857 65.28 126.025 65.28C127.097 65.28 128.009 65.432 128.761 65.736C129.513 66.024 130.129 66.392 130.609 66.84C131.089 67.288 131.441 67.76 131.665 68.256C131.905 68.736 132.033 69.16 132.049 69.528C132.065 69.688 132.009 69.832 131.881 69.96C131.769 70.072 131.633 70.128 131.473 70.128H128.905C128.745 70.128 128.617 70.088 128.521 70.008C128.441 69.912 128.361 69.784 128.281 69.624C128.057 69.064 127.769 68.664 127.417 68.424C127.065 68.184 126.625 68.064 126.097 68.064C125.377 68.064 124.809 68.296 124.393 68.76C123.977 69.224 123.753 69.944 123.721 70.92C123.705 71.544 123.705 72.112 123.721 72.624C123.769 73.616 123.993 74.336 124.393 74.784C124.809 75.232 125.377 75.456 126.097 75.456C126.657 75.456 127.105 75.336 127.441 75.096C127.777 74.856 128.057 74.456 128.281 73.896C128.345 73.736 128.425 73.616 128.521 73.536C128.617 73.44 128.745 73.392 128.905 73.392H131.473C131.633 73.392 131.769 73.456 131.881 73.584C132.009 73.696 132.065 73.832 132.049 73.992C132.033 74.264 131.953 74.584 131.809 74.952C131.681 75.32 131.465 75.696 131.161 76.08C130.873 76.464 130.497 76.824 130.033 77.16C129.569 77.48 129.001 77.744 128.329 77.952C127.673 78.144 126.905 78.24 126.025 78.24Z" fill="#626262"/>
</svg>
