<svg width="62" height="62" viewBox="0 0 62 62" fill="none" xmlns="http://www.w3.org/2000/svg">
<path d="M22.8639 29.7825C23.6504 30.3443 24.7433 30.1621 25.3051 29.3757C25.8669 28.5892 25.6847 27.4962 24.8982 26.9345L22.8639 29.7825ZM20.4471 19.6415L22.1955 19.7175L20.4471 19.6415ZM25.9941 8.28302L24.8418 6.96601L25.9941 8.28302ZM31.8055 3L33.009 1.72958L31.8175 0.600739L30.6147 1.71761L31.8055 3ZM36.8243 7.75472L38.0618 6.51728L38.0451 6.50056L38.0279 6.4843L36.8243 7.75472ZM40.117 15.7028L40.4047 17.429L43.8571 16.8536L43.5694 15.1274L40.117 15.7028ZM24.8982 26.9345C24.1253 26.3824 22.011 23.9599 22.1955 19.7175L18.6988 19.5655C18.4606 25.0439 21.1714 28.5736 22.8639 29.7825L24.8982 26.9345ZM22.1955 19.7175C22.4304 14.3132 25.2154 11.2898 27.1465 9.60003L24.8418 6.96601C22.5465 8.97439 18.9921 12.8189 18.6988 19.5655L22.1955 19.7175ZM27.1465 9.60003C28.8588 8.1018 31.7641 5.42658 32.9963 4.28239L30.6147 1.71761C29.3815 2.86273 26.5106 5.50575 24.8418 6.96601L27.1465 9.60003ZM30.6019 4.27042L35.6208 9.02513L38.0279 6.4843L33.009 1.72958L30.6019 4.27042ZM36.8243 7.75472C35.5869 8.99215 35.5867 8.99199 35.5866 8.99185C35.5866 8.99182 35.5864 8.9917 35.5864 8.99165C35.5863 8.99154 35.5863 8.99151 35.5863 8.99154C35.5864 8.99161 35.5867 8.99194 35.5873 8.99254C35.5885 8.99373 35.5907 8.99599 35.594 8.99929C35.6005 9.00588 35.6111 9.01662 35.6256 9.03133C35.6544 9.06077 35.6986 9.10606 35.7559 9.16579C35.8707 9.28535 36.0379 9.46226 36.2414 9.68533C36.6497 10.1329 37.1973 10.759 37.7575 11.4748C38.3207 12.1944 38.8774 12.9804 39.3167 13.7491C39.7676 14.5383 40.0341 15.2051 40.117 15.7028L43.5694 15.1274C43.3882 14.0402 42.8952 12.957 42.3556 12.0127C41.8043 11.0479 41.1393 10.117 40.5138 9.31769C39.8853 8.51462 39.2772 7.8199 38.8271 7.32646C38.6013 7.07901 38.4136 6.88034 38.2808 6.74193C38.2143 6.67269 38.1614 6.6184 38.1242 6.58051C38.1057 6.56156 38.091 6.5467 38.0805 6.5361C38.0752 6.53081 38.071 6.52657 38.0679 6.52343C38.0663 6.52186 38.065 6.52056 38.064 6.51953C38.0635 6.51902 38.0631 6.51857 38.0627 6.5182C38.0625 6.51801 38.0623 6.51778 38.0622 6.51769C38.062 6.51748 38.0618 6.51728 36.8243 7.75472Z" fill="#626262"/>
<path d="M29.7825 39.6645C30.3443 38.8781 30.1621 37.7851 29.3757 37.2233C28.5892 36.6616 27.4962 36.8437 26.9345 37.6302L29.7825 39.6645ZM19.6415 42.0813L19.7175 40.333L19.6415 42.0813ZM8.28302 36.5343L6.96601 37.6867L8.28302 36.5343ZM3 30.723L1.72958 29.5194L0.600739 30.711L1.71761 31.9138L3 30.723ZM7.75472 25.7041L6.51728 24.4667L6.50056 24.4834L6.4843 24.5006L7.75472 25.7041ZM15.7028 22.4114L17.429 22.1237L16.8536 18.6713L15.1274 18.959L15.7028 22.4114ZM26.9345 37.6302C26.3824 38.4031 23.9599 40.5174 19.7175 40.333L19.5655 43.8297C25.0439 44.0679 28.5736 41.357 29.7825 39.6645L26.9345 37.6302ZM19.7175 40.333C14.3132 40.098 11.2898 37.313 9.60003 35.3819L6.96601 37.6867C8.97439 39.982 12.8189 43.5364 19.5655 43.8297L19.7175 40.333ZM9.60003 35.3819C8.1018 33.6696 5.42658 30.7644 4.28239 29.5322L1.71761 31.9138C2.86273 33.147 5.50575 36.0178 6.96601 37.6867L9.60003 35.3819ZM4.27042 31.9265L9.02513 26.9077L6.4843 24.5006L1.72958 29.5194L4.27042 31.9265ZM7.75472 25.7041C8.99215 26.9415 8.99199 26.9417 8.99185 26.9418C8.99182 26.9419 8.9917 26.942 8.99165 26.942C8.99154 26.9422 8.99151 26.9422 8.99154 26.9422C8.99161 26.9421 8.99194 26.9418 8.99254 26.9412C8.99373 26.94 8.99599 26.9377 8.99929 26.9345C9.00588 26.9279 9.01662 26.9173 9.03133 26.9029C9.06077 26.874 9.10606 26.8299 9.16579 26.7725C9.28535 26.6578 9.46226 26.4905 9.68533 26.287C10.1329 25.8787 10.759 25.3311 11.4748 24.7709C12.1944 24.2077 12.9804 23.651 13.7491 23.2117C14.5383 22.7608 15.2051 22.4944 15.7028 22.4114L15.1274 18.959C14.0402 19.1402 12.957 19.6333 12.0127 20.1729C11.0479 20.7242 10.117 21.3891 9.31769 22.0146C8.51462 22.6431 7.8199 23.2512 7.32646 23.7014C7.07901 23.9271 6.88034 24.1148 6.74193 24.2477C6.67269 24.3142 6.6184 24.367 6.58051 24.4042C6.56156 24.4228 6.5467 24.4375 6.5361 24.448C6.53081 24.4532 6.52657 24.4574 6.52343 24.4605C6.52186 24.4621 6.52056 24.4634 6.51953 24.4644C6.51902 24.4649 6.51857 24.4654 6.5182 24.4657C6.51801 24.4659 6.51778 24.4662 6.51769 24.4663C6.51748 24.4665 6.51728 24.4667 7.75472 25.7041Z" fill="#626262"/>
<path d="M32.2175 22.8638C31.6557 23.6503 31.8379 24.7432 32.6243 25.305C33.4108 25.8667 34.5038 25.6846 35.0655 24.8981L32.2175 22.8638ZM42.3585 20.447L42.2825 22.1953L42.3585 20.447ZM53.717 25.994L55.034 24.8416L53.717 25.994ZM59 31.8053L60.2704 33.0089L61.3993 31.8173L60.2824 30.6146L59 31.8053ZM54.2453 36.8242L55.4827 38.0617L55.4994 38.0449L55.5157 38.0278L54.2453 36.8242ZM46.2972 40.1169L44.571 40.4046L45.1464 43.857L46.8726 43.5693L46.2972 40.1169ZM35.0655 24.8981C35.6176 24.1252 38.0401 22.0109 42.2825 22.1953L42.4345 18.6986C36.9561 18.4604 33.4264 21.1713 32.2175 22.8638L35.0655 24.8981ZM42.2825 22.1953C47.6868 22.4303 50.7102 25.2153 52.4 27.1464L55.034 24.8416C53.0256 22.5464 49.1811 18.992 42.4345 18.6986L42.2825 22.1953ZM52.4 27.1464C53.8982 28.8587 56.5734 31.7639 57.7176 32.9961L60.2824 30.6146C59.1373 29.3814 56.4942 26.5105 55.034 24.8416L52.4 27.1464ZM57.7296 30.6018L52.9749 35.6207L55.5157 38.0278L60.2704 33.0089L57.7296 30.6018ZM54.2453 36.8242C53.0078 35.5868 53.008 35.5866 53.0082 35.5865C53.0082 35.5864 53.0083 35.5863 53.0084 35.5863C53.0085 35.5862 53.0085 35.5861 53.0085 35.5862C53.0084 35.5862 53.0081 35.5866 53.0075 35.5872C53.0063 35.5884 53.004 35.5906 53.0007 35.5939C52.9941 35.6004 52.9834 35.611 52.9687 35.6254C52.9392 35.6543 52.8939 35.6984 52.8342 35.7558C52.7147 35.8705 52.5377 36.0378 52.3147 36.2413C51.8671 36.6496 51.241 37.1972 50.5252 37.7574C49.8056 38.3206 49.0196 38.8773 48.2509 39.3166C47.4617 39.7675 46.7949 40.0339 46.2972 40.1169L46.8726 43.5693C47.9598 43.3881 49.043 42.8951 49.9873 42.3554C50.9521 41.8042 51.883 41.1392 52.6823 40.5137C53.4854 39.8852 54.1801 39.2771 54.6735 38.827C54.921 38.6012 55.1197 38.4135 55.2581 38.2806C55.3273 38.2142 55.3816 38.1613 55.4195 38.1241C55.4384 38.1055 55.4533 38.0909 55.4639 38.0804C55.4692 38.0751 55.4734 38.0709 55.4766 38.0678C55.4781 38.0662 55.4794 38.0649 55.4805 38.0639C55.481 38.0634 55.4814 38.0629 55.4818 38.0626C55.482 38.0624 55.4822 38.0622 55.4823 38.0621C55.4825 38.0618 55.4827 38.0617 54.2453 36.8242Z" fill="#626262"/>
<path d="M39.6644 32.2175C38.8779 31.6557 37.785 31.8379 37.2232 32.6243C36.6615 33.4108 36.8436 34.5038 37.6301 35.0655L39.6644 32.2175ZM42.0812 42.3585L40.3329 42.2825L42.0812 42.3585ZM36.5342 53.717L37.6866 55.034L36.5342 53.717ZM30.7228 59L29.5193 60.2704L30.7109 61.3993L31.9136 60.2824L30.7228 59ZM25.704 54.2453L24.4665 55.4827L24.4833 55.4994L24.5004 55.5157L25.704 54.2453ZM22.4113 46.2972L22.1236 44.571L18.6712 45.1464L18.9589 46.8726L22.4113 46.2972ZM37.6301 35.0655C38.403 35.6176 40.5173 38.0401 40.3329 42.2825L43.8296 42.4345C44.0678 36.9561 41.3569 33.4264 39.6644 32.2175L37.6301 35.0655ZM40.3329 42.2825C40.0979 47.6868 37.3129 50.7102 35.3818 52.4L37.6866 55.034C39.9818 53.0256 43.5362 49.1811 43.8296 42.4345L40.3329 42.2825ZM35.3818 52.4C33.6695 53.8982 30.7643 56.5734 29.5321 57.7176L31.9136 60.2824C33.1468 59.1373 36.0177 56.4942 37.6866 55.034L35.3818 52.4ZM31.9264 57.7296L26.9075 52.9749L24.5004 55.5157L29.5193 60.2704L31.9264 57.7296ZM25.704 54.2453C26.9414 53.0078 26.9416 53.008 26.9417 53.0082C26.9417 53.0082 26.9419 53.0083 26.9419 53.0084C26.942 53.0085 26.9421 53.0085 26.942 53.0085C26.942 53.0084 26.9416 53.0081 26.941 53.0075C26.9398 53.0063 26.9376 53.004 26.9343 53.0007C26.9278 52.9941 26.9172 52.9834 26.9028 52.9687C26.8739 52.9392 26.8298 52.8939 26.7724 52.8342C26.6577 52.7147 26.4904 52.5377 26.2869 52.3147C25.8786 51.8671 25.331 51.241 24.7708 50.5252C24.2076 49.8056 23.6509 49.0196 23.2116 48.2509C22.7607 47.4617 22.4943 46.7949 22.4113 46.2972L18.9589 46.8726C19.1401 47.9598 19.6331 49.043 20.1728 49.9873C20.724 50.9521 21.389 51.883 22.0145 52.6823C22.643 53.4854 23.2511 54.1801 23.7012 54.6735C23.927 54.921 24.1147 55.1197 24.2476 55.2581C24.314 55.3273 24.3669 55.3816 24.4041 55.4195C24.4227 55.4384 24.4373 55.4533 24.4478 55.4639C24.4531 55.4692 24.4573 55.4734 24.4604 55.4766C24.462 55.4781 24.4633 55.4794 24.4643 55.4805C24.4648 55.481 24.4653 55.4814 24.4656 55.4818C24.4658 55.482 24.466 55.4822 24.4661 55.4823C24.4663 55.4825 24.4665 55.4827 25.704 54.2453Z" fill="#626262"/>
</svg>
